<mxfile host="app.diagrams.net" agent="Mozilla/5.0 (Windows NT 10.0; Win64; x64) AppleWebKit/537.36 (KHTML, like Gecko) Chrome/131.0.0.0 Safari/537.36" version="24.7.17">
  <diagram name="Page-1" id="H0xkNvkovuKGo1Nkret5">
    <mxGraphModel dx="776" dy="909" grid="1" gridSize="10" guides="1" tooltips="1" connect="1" arrows="1" fold="1" page="1" pageScale="1" pageWidth="1169" pageHeight="827" math="0" shadow="0">
      <root>
        <mxCell id="0" />
        <mxCell id="1" parent="0" />
        <mxCell id="UStcyOvw_XqlAZ2jQlUE-1" value="Web App React" style="whiteSpace=wrap;html=1;aspect=fixed;" vertex="1" parent="1">
          <mxGeometry x="360" y="160" width="110" height="110" as="geometry" />
        </mxCell>
        <mxCell id="UStcyOvw_XqlAZ2jQlUE-2" value="NetxJS Server" style="whiteSpace=wrap;html=1;aspect=fixed;" vertex="1" parent="1">
          <mxGeometry x="360" y="359" width="110" height="110" as="geometry" />
        </mxCell>
        <mxCell id="UStcyOvw_XqlAZ2jQlUE-3" value="C++ Chess" style="whiteSpace=wrap;html=1;aspect=fixed;" vertex="1" parent="1">
          <mxGeometry x="560" y="359" width="110" height="110" as="geometry" />
        </mxCell>
        <mxCell id="UStcyOvw_XqlAZ2jQlUE-4" value="DB" style="shape=cylinder3;whiteSpace=wrap;html=1;boundedLbl=1;backgroundOutline=1;size=15;" vertex="1" parent="1">
          <mxGeometry x="385" y="600" width="60" height="80" as="geometry" />
        </mxCell>
        <mxCell id="UStcyOvw_XqlAZ2jQlUE-5" value="" style="shape=flexArrow;endArrow=classic;startArrow=classic;html=1;rounded=0;entryX=0.5;entryY=1;entryDx=0;entryDy=0;" edge="1" parent="1" source="UStcyOvw_XqlAZ2jQlUE-2" target="UStcyOvw_XqlAZ2jQlUE-1">
          <mxGeometry width="100" height="100" relative="1" as="geometry">
            <mxPoint x="530" y="630" as="sourcePoint" />
            <mxPoint x="630" y="530" as="targetPoint" />
          </mxGeometry>
        </mxCell>
        <mxCell id="UStcyOvw_XqlAZ2jQlUE-6" value="" style="shape=flexArrow;endArrow=classic;startArrow=classic;html=1;rounded=0;entryX=0.5;entryY=1;entryDx=0;entryDy=0;exitX=0.5;exitY=0;exitDx=0;exitDy=0;exitPerimeter=0;" edge="1" parent="1" source="UStcyOvw_XqlAZ2jQlUE-4">
          <mxGeometry width="100" height="100" relative="1" as="geometry">
            <mxPoint x="414.5" y="558" as="sourcePoint" />
            <mxPoint x="414.5" y="469" as="targetPoint" />
          </mxGeometry>
        </mxCell>
        <mxCell id="UStcyOvw_XqlAZ2jQlUE-7" value="" style="shape=flexArrow;endArrow=classic;startArrow=classic;html=1;rounded=0;entryX=1;entryY=0.5;entryDx=0;entryDy=0;exitX=0;exitY=0.5;exitDx=0;exitDy=0;" edge="1" parent="1" source="UStcyOvw_XqlAZ2jQlUE-3" target="UStcyOvw_XqlAZ2jQlUE-2">
          <mxGeometry width="100" height="100" relative="1" as="geometry">
            <mxPoint x="435" y="379" as="sourcePoint" />
            <mxPoint x="435" y="290" as="targetPoint" />
          </mxGeometry>
        </mxCell>
        <mxCell id="UStcyOvw_XqlAZ2jQlUE-8" value="" style="shape=flexArrow;endArrow=classic;startArrow=classic;html=1;rounded=0;entryX=1;entryY=0.5;entryDx=0;entryDy=0;" edge="1" parent="1" source="UStcyOvw_XqlAZ2jQlUE-2" target="UStcyOvw_XqlAZ2jQlUE-9">
          <mxGeometry width="100" height="100" relative="1" as="geometry">
            <mxPoint x="210.5" y="545" as="sourcePoint" />
            <mxPoint x="210" y="414" as="targetPoint" />
          </mxGeometry>
        </mxCell>
        <mxCell id="UStcyOvw_XqlAZ2jQlUE-9" value="LLM (llama)&lt;br&gt;Python" style="whiteSpace=wrap;html=1;aspect=fixed;" vertex="1" parent="1">
          <mxGeometry x="150" y="359" width="110" height="110" as="geometry" />
        </mxCell>
        <mxCell id="UStcyOvw_XqlAZ2jQlUE-10" value="Partie" style="swimlane;whiteSpace=wrap;html=1;" vertex="1" parent="1">
          <mxGeometry x="480" y="610" width="200" height="70" as="geometry" />
        </mxCell>
        <mxCell id="UStcyOvw_XqlAZ2jQlUE-11" value="Actor" style="shape=umlActor;verticalLabelPosition=bottom;verticalAlign=top;html=1;outlineConnect=0;" vertex="1" parent="1">
          <mxGeometry x="120" y="110" width="30" height="60" as="geometry" />
        </mxCell>
        <mxCell id="UStcyOvw_XqlAZ2jQlUE-12" value="Actor" style="shape=umlActor;verticalLabelPosition=bottom;verticalAlign=top;html=1;outlineConnect=0;" vertex="1" parent="1">
          <mxGeometry x="680" y="120" width="30" height="60" as="geometry" />
        </mxCell>
        <mxCell id="UStcyOvw_XqlAZ2jQlUE-13" value="Board T1" style="swimlane;startSize=0;" vertex="1" parent="1">
          <mxGeometry x="70" y="510" width="200" height="200" as="geometry" />
        </mxCell>
        <mxCell id="UStcyOvw_XqlAZ2jQlUE-14" value="Board T2" style="swimlane;startSize=0;" vertex="1" parent="1">
          <mxGeometry x="80" y="520" width="200" height="200" as="geometry" />
        </mxCell>
        <mxCell id="UStcyOvw_XqlAZ2jQlUE-15" value="Board T3" style="swimlane;startSize=0;" vertex="1" parent="1">
          <mxGeometry x="90" y="530" width="200" height="200" as="geometry" />
        </mxCell>
        <mxCell id="UStcyOvw_XqlAZ2jQlUE-16" value="&lt;h1 id=&quot;firstHeading&quot; class=&quot;firstHeading mw-first-heading&quot; style=&quot;color: var(--color-emphasized,#101418); font-weight: normal; margin: 0px; padding: 0px; display: flow-root; word-break: break-word; border: 0px; font-size: 1.8em; font-family: &amp;quot;Linux Libertine&amp;quot;, Georgia, Times, &amp;quot;Source Serif Pro&amp;quot;, serif; line-height: 1.375; overflow-wrap: break-word; flex-grow: 1; font-style: normal; font-variant-ligatures: normal; font-variant-caps: normal; letter-spacing: normal; orphans: 2; text-align: start; text-indent: 0px; text-transform: none; widows: 2; word-spacing: 0px; -webkit-text-stroke-width: 0px; white-space: normal; background-color: rgb(255, 255, 255); text-decoration-thickness: initial; text-decoration-style: initial; text-decoration-color: initial;&quot;&gt;&lt;span class=&quot;mw-page-title-main&quot;&gt;Portable Game Notation&lt;/span&gt;&lt;/h1&gt;" style="text;whiteSpace=wrap;html=1;" vertex="1" parent="1">
          <mxGeometry x="80" y="730" width="270" height="50" as="geometry" />
        </mxCell>
        <mxCell id="UStcyOvw_XqlAZ2jQlUE-17" value="&lt;pre style=&quot;font-family: monospace, monospace; background-color: var(--background-color-neutral-subtle,#f8f9fa); color: var(--color-emphasized,#101418); border: 1px solid var(--border-color-muted,#dadde3); padding: 1em; white-space: pre-wrap; overflow-x: hidden; overflow-wrap: break-word; line-height: 1.3; font-size: 16px; font-style: normal; font-variant-ligatures: normal; font-variant-caps: normal; font-weight: 400; letter-spacing: normal; orphans: 2; text-align: start; text-indent: 0px; text-transform: none; widows: 2; word-spacing: 0px; -webkit-text-stroke-width: 0px; text-decoration-thickness: initial; text-decoration-style: initial; text-decoration-color: initial;&quot;&gt;1. e4 e5 2. Nf3 Nc6 3. Bb5 a6 4. Ba4 Nf6 5. O-O Be7 6. Re1 b5 7. Bb3 d6 8. c3&#xa;O-O 9. h3 Nb8 10. d4 Nbd7 11. c4 c6 12. cxb5 axb5 13. Nc3 Bb7 14. Bg5 b4 15.&#xa;Nb1 h6 16. Bh4 c5 17. dxe5 Nxe4 18. Bxe7 Qxe7 19. exd6 Qf6 20. Nbd2 Nxd6 21.&#xa;Nc4 Nxc4 22. Bxc4 Nb6 23. Ne5 Rae8 24. Bxf7+ Rxf7 25. Nxf7 Rxe1+ 26. Qxe1 Kxf7&#xa;27. Qe3 Qg5 28. Qxg5 hxg5 29. b3 Ke6 30. a3 Kd6 31. axb4 cxb4 32. Ra5 Nd5 33.&#xa;f3 Bc8 34. Kf2 Bf5 35. Ra7 g6 36. Ra6+ Kc5 37. Ke1 Nf4 38. g3 Nxh3 39. Kd2 Kb5&#xa;40. Rd6 Kc5 41. Ra6 Nf2 42. g4 Bd3 43. Re6 1/2-1/2&lt;/pre&gt;" style="text;whiteSpace=wrap;html=1;" vertex="1" parent="1">
          <mxGeometry x="370" y="690" width="560" height="360" as="geometry" />
        </mxCell>
      </root>
    </mxGraphModel>
  </diagram>
</mxfile>
